<svg width="167" height="209" viewBox="0 0 167 209" fill="none" xmlns="http://www.w3.org/2000/svg">
<path d="M109.154 162.42H102.1H102.035H101.97H88.1168H88.0516H87.9865H74.1337H74.0686H74.0035H60.1507H60.0855H60.0204H52.9613C51.4382 162.42 50.0003 162.129 48.6576 161.557C47.33 160.99 46.1225 160.147 45.0604 159.039L44.9201 158.878C43.9231 157.8 43.1766 156.611 42.6957 155.327C42.1846 153.978 41.9642 152.523 42.0293 150.993C42.4151 141.869 43.7778 133.974 46.1075 127.317C48.4823 120.521 51.8791 114.993 56.2779 110.759C57.325 109.746 58.4924 108.984 59.7649 108.472C61.0475 107.95 62.4202 107.695 63.8631 107.695H68.8581V99.5184C68.8581 98.134 69.9804 97.0104 71.3632 97.0104H72.5556V13.2825C72.5556 11.0303 73.4524 8.96871 74.9053 7.43881L75.0556 7.2783C76.5937 5.73837 78.7229 4.7803 81.0626 4.7803C83.3973 4.7803 85.5216 5.73837 87.0597 7.2783C88.6078 8.82324 89.5647 10.9551 89.5647 13.2875V97.0154H90.7571C92.1398 97.0154 93.2621 98.139 93.2621 99.5235V107.7H98.2571C99.7 107.7 101.068 107.96 102.35 108.477C103.628 108.989 104.795 109.756 105.842 110.769C110.241 115.003 113.633 120.531 116.013 127.327C118.337 133.979 119.7 141.874 120.091 151.003C120.156 152.533 119.931 153.983 119.42 155.337C118.909 156.691 118.117 157.935 117.055 159.044C115.998 160.147 114.79 160.995 113.463 161.562C112.12 162.134 110.677 162.425 109.159 162.425L109.154 162.42ZM107.531 20.3451L109.62 25.8477L115.116 27.9394C116.404 28.426 117.06 29.8706 116.574 31.1597C116.313 31.862 115.767 32.3736 115.116 32.6194L109.62 34.7111L107.531 40.2137C107.045 41.5028 105.602 42.1599 104.314 41.6734C103.613 41.4125 103.102 40.8658 102.856 40.2137L100.767 34.7111L95.2711 32.6194C93.9836 32.1328 93.3272 30.6882 93.8132 29.3991C94.0737 28.6968 94.6198 28.1852 95.2711 27.9394L100.767 25.8477L102.856 20.3451C103.342 19.056 104.785 18.3989 106.073 18.8854C106.774 19.1463 107.285 19.693 107.531 20.3451ZM105.341 28.6667L105.191 28.2705L105.041 28.6667C104.795 29.3188 104.284 29.8656 103.583 30.1264L103.187 30.2769L103.583 30.4274C104.234 30.6732 104.78 31.1848 105.041 31.887L105.191 32.2833L105.341 31.887C105.587 31.235 106.098 30.6882 106.799 30.4274L107.195 30.2769L106.799 30.1264C106.148 29.8806 105.602 29.369 105.341 28.6667ZM50.0103 41.8238L53.0264 49.7743L60.9673 52.7939C62.2549 53.2805 62.9112 54.7251 62.4252 56.0142C62.1647 56.7165 61.6186 57.2281 60.9673 57.4739L53.0264 60.4936L50.0103 68.444C49.5244 69.7331 48.0815 70.3902 46.7939 69.9037C46.0925 69.6429 45.5815 69.0961 45.336 68.444L42.3199 60.4936L34.379 57.4739C33.0914 56.9874 32.4351 55.5427 32.9211 54.2536C33.1816 53.5514 33.7277 53.0397 34.379 52.7939L42.3199 49.7743L45.336 41.8238C45.8219 40.5347 47.2648 39.8776 48.5524 40.3642C49.2538 40.625 49.7648 41.1717 50.0103 41.8238ZM48.7478 52.5933L47.6706 49.7492L46.5935 52.5933C46.348 53.2454 45.837 53.7921 45.1356 54.053L42.2949 55.1314L45.1356 56.2099C45.7869 56.4557 46.333 56.9673 46.5935 57.6695L47.6706 60.5136L48.7478 57.6695C48.9933 57.0175 49.5043 56.4707 50.2057 56.2099L53.0464 55.1314L50.2057 54.053C49.5544 53.8072 49.0083 53.2955 48.7478 52.5933ZM119.936 70.3401L123.423 79.5395L132.611 83.0307C133.899 83.5172 134.555 84.9619 134.069 86.251C133.808 86.9532 133.262 87.4649 132.611 87.7107L123.423 91.2018L119.936 100.401C119.45 101.69 118.007 102.348 116.719 101.861C116.018 101.6 115.507 101.053 115.261 100.401L111.774 91.2018L102.586 87.7107C101.298 87.2241 100.642 85.7795 101.128 84.4904C101.388 83.7881 101.935 83.2765 102.586 83.0307L111.774 79.5395L115.261 70.3401C115.747 69.051 117.19 68.3939 118.478 68.8804C119.179 69.1413 119.69 69.688 119.936 70.3401ZM119.149 82.3585L117.601 78.2654L116.053 82.3585C115.807 83.0106 115.296 83.5574 114.595 83.8182L110.507 85.3682L114.595 86.9181C115.246 87.1639 115.792 87.6756 116.053 88.3778L117.601 92.4709L119.149 88.3778C119.395 87.7257 119.906 87.179 120.607 86.9181L124.695 85.3682L120.607 83.8182C119.956 83.5724 119.41 83.0608 119.149 82.3585ZM77.5606 97.0154H84.5496V13.2875C84.5496 12.3295 84.1588 11.4517 83.5276 10.8246C82.8963 10.1926 82.0195 9.79635 81.0526 9.79635C80.0957 9.79635 79.2189 10.1926 78.5877 10.8246L78.4824 10.925C77.9113 11.5419 77.5606 12.3746 77.5606 13.2825V97.0104V97.0154ZM73.8632 107.7H88.247V102.031H87.1198H87.0546H75.0556H74.9904H73.8632V107.7ZM57.5805 135.062C57.5805 133.678 58.7028 132.554 60.0855 132.554C61.4683 132.554 62.5906 133.678 62.5906 135.062V157.409H71.5636V135.062C71.5636 133.678 72.6858 132.554 74.0686 132.554C75.4514 132.554 76.5736 133.678 76.5736 135.062V157.409H85.5466V135.062C85.5466 133.678 86.6689 132.554 88.0516 132.554C89.4344 132.554 90.5567 133.678 90.5567 135.062V157.409H99.5297V135.062C99.5297 133.678 100.652 132.554 102.035 132.554C103.417 132.554 104.54 133.678 104.54 135.062V157.409H109.154C110.021 157.409 110.807 157.258 111.504 156.962C112.21 156.661 112.866 156.2 113.458 155.578C114.044 154.966 114.48 154.294 114.745 153.576C115.016 152.854 115.136 152.057 115.101 151.199C114.735 142.571 113.463 135.157 111.298 128.973C109.184 122.928 106.208 118.058 102.38 114.371C101.794 113.809 101.163 113.388 100.492 113.117C99.8303 112.851 99.0838 112.716 98.2571 112.716H90.8222H90.7571H71.3632H71.298H63.8631C63.0365 112.716 62.285 112.851 61.6236 113.117C60.9523 113.388 60.321 113.804 59.7399 114.366C55.9122 118.053 52.9312 122.928 50.822 128.968C48.6576 135.157 47.3851 142.566 47.0193 151.194C46.9843 152.052 47.1045 152.849 47.37 153.566C47.6256 154.249 48.0264 154.886 48.5524 155.467L48.6576 155.568C49.2488 156.185 49.9051 156.651 50.6115 156.952C51.3079 157.248 52.0995 157.399 52.9613 157.399H57.5805V135.052V135.062Z" fill="#FFFF00"/>
</svg>
