<svg width="305" height="230" viewBox="0 0 305 230" fill="none" xmlns="http://www.w3.org/2000/svg">
<rect width="305" height="230" fill="#DCB2F0"/>
<path d="M43.65 167.63L51.02 167.02L43.61 166.42C43.5615 166.415 43.5154 166.397 43.4764 166.367C43.4374 166.338 43.4071 166.299 43.3886 166.254C43.3702 166.209 43.3643 166.159 43.3716 166.111C43.3788 166.063 43.399 166.018 43.43 165.98L45.65 163.36L43.03 165.59C42.9934 165.622 42.9486 165.643 42.9008 165.65C42.8529 165.658 42.8038 165.652 42.7591 165.634C42.7144 165.615 42.6758 165.584 42.6477 165.544C42.6195 165.505 42.603 165.458 42.6 165.41L42.02 158L41.42 165.41C41.4149 165.458 41.3967 165.505 41.3674 165.544C41.3381 165.583 41.2989 165.613 41.2537 165.631C41.2086 165.65 41.1594 165.656 41.1112 165.648C41.063 165.641 41.0176 165.621 40.98 165.59L38.36 163.36L40.59 165.98C40.621 166.018 40.6412 166.063 40.6484 166.111C40.6557 166.159 40.6498 166.209 40.6314 166.254C40.6129 166.299 40.5826 166.338 40.5436 166.367C40.5046 166.397 40.4585 166.415 40.41 166.42L33 167.02L40.41 167.63C40.4584 167.633 40.505 167.65 40.5445 167.678C40.584 167.706 40.6148 167.744 40.6336 167.789C40.6523 167.834 40.6581 167.883 40.6504 167.931C40.6427 167.979 40.6218 168.023 40.59 168.06L38.36 170.68L41.02 168.46C41.0576 168.429 41.103 168.409 41.1512 168.402C41.1994 168.394 41.2486 168.4 41.2937 168.419C41.3389 168.437 41.3781 168.467 41.4074 168.506C41.4367 168.545 41.4549 168.592 41.46 168.64L42.06 176.05L42.67 168.64C42.673 168.592 42.6895 168.545 42.7177 168.506C42.7458 168.466 42.7844 168.435 42.8291 168.416C42.8738 168.398 42.9229 168.392 42.9708 168.4C43.0186 168.407 43.0634 168.428 43.1 168.46L45.72 170.68L43.5 168.06C43.4689 168.025 43.4477 167.983 43.4386 167.937C43.4294 167.892 43.4327 167.845 43.448 167.801C43.4633 167.757 43.4901 167.718 43.5257 167.688C43.5612 167.658 43.6041 167.638 43.65 167.63Z" fill="#FFFF00" fill-opacity="0.73"/>
<path d="M213.65 137.63L221.02 137.02L213.61 136.42C213.562 136.415 213.515 136.397 213.476 136.367C213.437 136.338 213.407 136.299 213.389 136.254C213.37 136.209 213.364 136.159 213.372 136.111C213.379 136.063 213.399 136.018 213.43 135.98L215.65 133.36L213.03 135.59C212.993 135.622 212.949 135.643 212.901 135.65C212.853 135.658 212.804 135.652 212.759 135.634C212.714 135.615 212.676 135.584 212.648 135.544C212.62 135.505 212.603 135.458 212.6 135.41L212.02 128L211.42 135.41C211.415 135.458 211.397 135.505 211.367 135.544C211.338 135.583 211.299 135.613 211.254 135.631C211.209 135.65 211.159 135.656 211.111 135.648C211.063 135.641 211.018 135.621 210.98 135.59L208.36 133.36L210.59 135.98C210.621 136.018 210.641 136.063 210.648 136.111C210.656 136.159 210.65 136.209 210.631 136.254C210.613 136.299 210.583 136.338 210.544 136.367C210.505 136.397 210.458 136.415 210.41 136.42L203 137.02L210.41 137.63C210.458 137.633 210.505 137.65 210.544 137.678C210.584 137.706 210.615 137.744 210.634 137.789C210.652 137.834 210.658 137.883 210.65 137.931C210.643 137.979 210.622 138.023 210.59 138.06L208.36 140.68L211.02 138.46C211.058 138.429 211.103 138.409 211.151 138.402C211.199 138.394 211.249 138.4 211.294 138.419C211.339 138.437 211.378 138.467 211.407 138.506C211.437 138.545 211.455 138.592 211.46 138.64L212.06 146.05L212.67 138.64C212.673 138.592 212.69 138.545 212.718 138.506C212.746 138.466 212.784 138.435 212.829 138.416C212.874 138.398 212.923 138.392 212.971 138.4C213.019 138.407 213.063 138.428 213.1 138.46L215.72 140.68L213.5 138.06C213.469 138.025 213.448 137.983 213.439 137.937C213.429 137.892 213.433 137.845 213.448 137.801C213.463 137.757 213.49 137.718 213.526 137.688C213.561 137.658 213.604 137.638 213.65 137.63Z" fill="#FFFF00" fill-opacity="0.73"/>
<path d="M253.65 77.63L261.02 77.02L253.61 76.42C253.562 76.4148 253.515 76.3967 253.476 76.3674C253.437 76.3381 253.407 76.2989 253.389 76.2537C253.37 76.2086 253.364 76.1594 253.372 76.1112C253.379 76.063 253.399 76.0176 253.43 75.98L255.65 73.36L253.03 75.59C252.993 75.6218 252.949 75.6427 252.901 75.6504C252.853 75.6581 252.804 75.6523 252.759 75.6336C252.714 75.6148 252.676 75.584 252.648 75.5445C252.62 75.505 252.603 75.4584 252.6 75.41L252.02 68L251.42 75.41C251.415 75.4585 251.397 75.5046 251.367 75.5436C251.338 75.5826 251.299 75.6129 251.254 75.6314C251.209 75.6498 251.159 75.6557 251.111 75.6484C251.063 75.6412 251.018 75.621 250.98 75.59L248.36 73.36L250.59 75.98C250.621 76.0176 250.641 76.063 250.648 76.1112C250.656 76.1594 250.65 76.2086 250.631 76.2537C250.613 76.2989 250.583 76.3381 250.544 76.3674C250.505 76.3967 250.458 76.4148 250.41 76.42L243 77.02L250.41 77.63C250.458 77.633 250.505 77.6495 250.544 77.6777C250.584 77.7058 250.615 77.7444 250.634 77.7891C250.652 77.8338 250.658 77.8829 250.65 77.9308C250.643 77.9786 250.622 78.0234 250.59 78.06L248.36 80.68L251.02 78.46C251.058 78.429 251.103 78.4088 251.151 78.4016C251.199 78.3943 251.249 78.4002 251.294 78.4186C251.339 78.4371 251.378 78.4674 251.407 78.5064C251.437 78.5454 251.455 78.5915 251.46 78.64L252.06 86.05L252.67 78.64C252.673 78.5916 252.69 78.545 252.718 78.5055C252.746 78.466 252.784 78.4352 252.829 78.4164C252.874 78.3977 252.923 78.3919 252.971 78.3996C253.019 78.4073 253.063 78.4282 253.1 78.46L255.72 80.68L253.5 78.06C253.469 78.0254 253.448 77.9831 253.439 77.9375C253.429 77.8918 253.433 77.8446 253.448 77.8007C253.463 77.7568 253.49 77.7178 253.526 77.6877C253.561 77.6577 253.604 77.6378 253.65 77.63Z" fill="#FFFF00" fill-opacity="0.73"/>
<path d="M25.65 15.63L33.02 15.02L25.61 14.42C25.5615 14.4148 25.5154 14.3967 25.4764 14.3674C25.4374 14.3381 25.4071 14.2989 25.3886 14.2537C25.3702 14.2086 25.3643 14.1594 25.3716 14.1112C25.3788 14.063 25.399 14.0176 25.43 13.98L27.65 11.36L25.03 13.59C24.9934 13.6218 24.9486 13.6427 24.9008 13.6504C24.8529 13.6581 24.8038 13.6523 24.7591 13.6336C24.7144 13.6148 24.6758 13.584 24.6477 13.5445C24.6195 13.505 24.603 13.4584 24.6 13.41L24.02 6L23.42 13.41C23.4149 13.4585 23.3967 13.5046 23.3674 13.5436C23.3381 13.5826 23.2989 13.6129 23.2537 13.6314C23.2086 13.6498 23.1594 13.6557 23.1112 13.6484C23.063 13.6412 23.0176 13.621 22.98 13.59L20.36 11.36L22.59 13.98C22.621 14.0176 22.6412 14.063 22.6484 14.1112C22.6557 14.1594 22.6498 14.2086 22.6314 14.2537C22.6129 14.2989 22.5826 14.3381 22.5436 14.3674C22.5046 14.3967 22.4585 14.4148 22.41 14.42L15 15.02L22.41 15.63C22.4584 15.633 22.505 15.6495 22.5445 15.6777C22.584 15.7058 22.6148 15.7444 22.6336 15.7891C22.6523 15.8338 22.6581 15.8829 22.6504 15.9308C22.6427 15.9786 22.6218 16.0234 22.59 16.06L20.36 18.68L23.02 16.46C23.0576 16.429 23.103 16.4088 23.1512 16.4016C23.1994 16.3943 23.2486 16.4002 23.2937 16.4186C23.3389 16.4371 23.3781 16.4674 23.4074 16.5064C23.4367 16.5454 23.4549 16.5915 23.46 16.64L24.06 24.05L24.67 16.64C24.673 16.5916 24.6895 16.545 24.7177 16.5055C24.7458 16.466 24.7844 16.4352 24.8291 16.4164C24.8738 16.3977 24.9229 16.3919 24.9708 16.3996C25.0186 16.4073 25.0634 16.4282 25.1 16.46L27.72 18.68L25.5 16.06C25.4689 16.0254 25.4477 15.9831 25.4386 15.9375C25.4294 15.8918 25.4327 15.8446 25.448 15.8007C25.4633 15.7568 25.4901 15.7178 25.5257 15.6877C25.5612 15.6577 25.6041 15.6378 25.65 15.63Z" fill="#FFFF00" fill-opacity="0.73"/>
<path d="M178.21 34.67L189.49 33.75L178.21 32.83C178.136 32.8239 178.066 32.7976 178.006 32.754C177.947 32.7104 177.901 32.6511 177.873 32.5828C177.845 32.5145 177.836 32.4397 177.848 32.3669C177.86 32.294 177.892 32.2259 177.94 32.17L181.32 28.17L177.32 31.56C177.262 31.6077 177.193 31.6388 177.119 31.6498C177.045 31.6608 176.969 31.6514 176.9 31.6226C176.831 31.5937 176.772 31.5466 176.727 31.4862C176.683 31.4258 176.657 31.3545 176.65 31.28L175.73 20L174.83 31.25C174.826 31.3244 174.801 31.3961 174.758 31.4571C174.715 31.518 174.656 31.5657 174.587 31.5948C174.518 31.624 174.443 31.6333 174.369 31.6219C174.296 31.6104 174.227 31.5786 174.17 31.53L170.17 28.14L173.56 32.14C173.609 32.1965 173.64 32.2655 173.652 32.3392C173.663 32.4129 173.654 32.4883 173.625 32.5569C173.596 32.6255 173.548 32.6847 173.487 32.7276C173.426 32.7706 173.354 32.7956 173.28 32.8L162 33.72L173.28 34.64C173.355 34.6465 173.426 34.6733 173.486 34.7174C173.547 34.7615 173.594 34.8213 173.623 34.8904C173.651 34.9594 173.661 35.0349 173.65 35.1089C173.639 35.1829 173.608 35.2524 173.56 35.31L170.17 39.31L174.17 35.93C174.226 35.8818 174.294 35.8499 174.367 35.838C174.44 35.8261 174.514 35.8346 174.583 35.8626C174.651 35.8905 174.71 35.9369 174.754 35.9964C174.798 36.056 174.824 36.1264 174.83 36.2L175.75 47.48L176.67 36.25C176.678 36.1763 176.706 36.1063 176.751 36.0472C176.796 35.9882 176.856 35.9424 176.924 35.9147C176.993 35.887 177.068 35.8784 177.141 35.8899C177.214 35.9014 177.283 35.9326 177.34 35.98L181.34 39.36L177.96 35.36C177.903 35.3065 177.864 35.2375 177.846 35.1616C177.828 35.0858 177.832 35.0063 177.859 34.933C177.885 34.8597 177.933 34.7957 177.995 34.749C178.057 34.7023 178.132 34.6748 178.21 34.67Z" fill="#FFFF00"/>
<path d="M263.72 182.66L275 181.74L263.72 180.82C263.646 180.814 263.576 180.788 263.516 180.744C263.457 180.7 263.411 180.641 263.383 180.573C263.355 180.504 263.346 180.43 263.358 180.357C263.37 180.284 263.402 180.216 263.45 180.16L266.83 176.16L262.83 179.55C262.772 179.598 262.703 179.629 262.629 179.64C262.555 179.651 262.479 179.641 262.41 179.613C262.341 179.584 262.282 179.537 262.237 179.476C262.193 179.416 262.167 179.345 262.16 179.27L261.24 167.99L260.34 179.24C260.336 179.314 260.311 179.386 260.268 179.447C260.225 179.508 260.166 179.556 260.097 179.585C260.028 179.614 259.953 179.623 259.879 179.612C259.806 179.6 259.737 179.569 259.68 179.52L255.68 176.13L259.07 180.13C259.119 180.187 259.15 180.256 259.162 180.329C259.173 180.403 259.164 180.478 259.135 180.547C259.106 180.616 259.058 180.675 258.997 180.718C258.936 180.761 258.864 180.786 258.79 180.79L247.51 181.71L258.79 182.63C258.865 182.637 258.936 182.663 258.996 182.707C259.057 182.752 259.104 182.811 259.133 182.88C259.161 182.949 259.171 183.025 259.16 183.099C259.149 183.173 259.118 183.242 259.07 183.3L255.68 187.3L259.68 183.92C259.736 183.872 259.804 183.84 259.877 183.828C259.95 183.816 260.024 183.825 260.093 183.853C260.161 183.881 260.22 183.927 260.264 183.986C260.308 184.046 260.334 184.116 260.34 184.19L261.26 195.47L262.18 184.24C262.188 184.166 262.216 184.096 262.261 184.037C262.306 183.978 262.366 183.932 262.434 183.905C262.503 183.877 262.578 183.868 262.651 183.88C262.724 183.891 262.793 183.923 262.85 183.97L266.85 187.35L263.47 183.35C263.413 183.296 263.374 183.228 263.356 183.152C263.338 183.076 263.342 182.996 263.369 182.923C263.395 182.85 263.443 182.786 263.505 182.739C263.567 182.692 263.642 182.665 263.72 182.66Z" fill="#FFFF00"/>
<path d="M133.72 112.66L145 111.74L133.72 110.82C133.646 110.814 133.576 110.788 133.516 110.744C133.457 110.7 133.411 110.641 133.383 110.573C133.355 110.504 133.346 110.43 133.358 110.357C133.37 110.284 133.402 110.216 133.45 110.16L136.83 106.16L132.83 109.55C132.772 109.598 132.703 109.629 132.629 109.64C132.555 109.651 132.479 109.641 132.41 109.613C132.341 109.584 132.282 109.537 132.237 109.476C132.193 109.416 132.167 109.345 132.16 109.27L131.24 97.99L130.34 109.24C130.336 109.314 130.311 109.386 130.268 109.447C130.225 109.508 130.166 109.556 130.097 109.585C130.028 109.614 129.953 109.623 129.879 109.612C129.806 109.6 129.737 109.569 129.68 109.52L125.68 106.13L129.07 110.13C129.119 110.187 129.15 110.256 129.162 110.329C129.173 110.403 129.164 110.478 129.135 110.547C129.106 110.616 129.058 110.675 128.997 110.718C128.936 110.761 128.864 110.786 128.79 110.79L117.51 111.71L128.79 112.63C128.865 112.637 128.936 112.663 128.996 112.707C129.057 112.752 129.104 112.811 129.133 112.88C129.161 112.949 129.171 113.025 129.16 113.099C129.149 113.173 129.118 113.242 129.07 113.3L125.68 117.3L129.68 113.92C129.736 113.872 129.804 113.84 129.877 113.828C129.95 113.816 130.024 113.825 130.093 113.853C130.161 113.881 130.22 113.927 130.264 113.986C130.308 114.046 130.334 114.116 130.34 114.19L131.26 125.47L132.18 114.24C132.188 114.166 132.216 114.096 132.261 114.037C132.306 113.978 132.366 113.932 132.434 113.905C132.503 113.877 132.578 113.868 132.651 113.88C132.724 113.891 132.793 113.923 132.85 113.97L136.85 117.35L133.47 113.35C133.413 113.296 133.374 113.228 133.356 113.152C133.338 113.076 133.342 112.996 133.369 112.923C133.395 112.85 133.443 112.786 133.505 112.739C133.567 112.692 133.642 112.665 133.72 112.66Z" fill="#FFFF00"/>
<path d="M53.72 82.66L65 81.74L53.72 80.82C53.6464 80.814 53.576 80.7876 53.5164 80.744C53.4569 80.7004 53.4106 80.6411 53.3826 80.5728C53.3547 80.5045 53.3462 80.4298 53.358 80.3569C53.3699 80.284 53.4018 80.2159 53.45 80.16L56.83 76.16L52.83 79.55C52.7724 79.5977 52.7029 79.6288 52.6289 79.6398C52.5549 79.6508 52.4794 79.6414 52.4104 79.6126C52.3414 79.5837 52.2816 79.5366 52.2374 79.4762C52.1933 79.4158 52.1665 79.3445 52.16 79.27L51.24 67.99L50.34 79.24C50.3356 79.3144 50.3106 79.3861 50.2676 79.4471C50.2247 79.508 50.1655 79.5557 50.0969 79.5849C50.0283 79.614 49.9529 79.6233 49.8792 79.6119C49.8055 79.6004 49.7366 79.5686 49.68 79.52L45.68 76.13L49.07 80.13C49.1186 80.1865 49.1504 80.2556 49.1619 80.3292C49.1733 80.4029 49.164 80.4783 49.1348 80.5469C49.1057 80.6155 49.058 80.6747 48.9971 80.7176C48.9362 80.7606 48.8644 80.7856 48.79 80.79L37.51 81.71L48.79 82.63C48.8645 82.6365 48.9358 82.6633 48.9962 82.7074C49.0566 82.7515 49.1037 82.8114 49.1326 82.8804C49.1614 82.9494 49.1708 83.0249 49.1598 83.0989C49.1488 83.1729 49.1177 83.2424 49.07 83.3L45.68 87.3L49.68 83.92C49.7359 83.8718 49.804 83.8399 49.8769 83.828C49.9498 83.8162 50.0245 83.8246 50.0928 83.8526C50.1611 83.8806 50.2204 83.9269 50.264 83.9864C50.3077 84.046 50.3339 84.1164 50.34 84.19L51.26 95.47L52.18 84.24C52.1881 84.1664 52.2161 84.0963 52.2608 84.0372C52.3056 83.9782 52.3656 83.9324 52.4343 83.9047C52.503 83.877 52.578 83.8684 52.6512 83.8799C52.7244 83.8914 52.7931 83.9226 52.85 83.97L56.85 87.35L53.47 83.35C53.4133 83.2965 53.3735 83.2275 53.3555 83.1516C53.3375 83.0758 53.3421 82.9963 53.3686 82.923C53.3952 82.8497 53.4426 82.7857 53.505 82.739C53.5675 82.6923 53.6422 82.6648 53.72 82.66Z" fill="#FFFF00"/>
</svg>
