<svg width="305" height="237" viewBox="0 0 305 237" fill="none" xmlns="http://www.w3.org/2000/svg">
<rect width="305" height="230" fill="#DCB2F0"/>
<path d="M113.72 22.66L125 21.74L113.72 20.82C113.646 20.814 113.576 20.7876 113.516 20.744C113.457 20.7004 113.411 20.6411 113.383 20.5728C113.355 20.5045 113.346 20.4298 113.358 20.3569C113.37 20.284 113.402 20.2159 113.45 20.16L116.83 16.16L112.83 19.55C112.772 19.5977 112.703 19.6288 112.629 19.6398C112.555 19.6508 112.479 19.6414 112.41 19.6126C112.341 19.5837 112.282 19.5366 112.237 19.4762C112.193 19.4158 112.167 19.3445 112.16 19.27L111.24 7.99001L110.34 19.24C110.336 19.3144 110.311 19.3861 110.268 19.4471C110.225 19.508 110.166 19.5557 110.097 19.5849C110.028 19.614 109.953 19.6233 109.879 19.6119C109.806 19.6004 109.737 19.5686 109.68 19.52L105.68 16.13L109.07 20.13C109.119 20.1865 109.15 20.2556 109.162 20.3292C109.173 20.4029 109.164 20.4783 109.135 20.5469C109.106 20.6155 109.058 20.6747 108.997 20.7176C108.936 20.7606 108.864 20.7856 108.79 20.79L97.51 21.71L108.79 22.63C108.865 22.6365 108.936 22.6633 108.996 22.7074C109.057 22.7515 109.104 22.8114 109.133 22.8804C109.161 22.9494 109.171 23.0249 109.16 23.0989C109.149 23.1729 109.118 23.2424 109.07 23.3L105.68 27.3L109.68 23.92C109.736 23.8718 109.804 23.8399 109.877 23.828C109.95 23.8162 110.024 23.8246 110.093 23.8526C110.161 23.8806 110.22 23.9269 110.264 23.9864C110.308 24.046 110.334 24.1164 110.34 24.19L111.26 35.47L112.18 24.24C112.188 24.1664 112.216 24.0963 112.261 24.0372C112.306 23.9782 112.366 23.9324 112.434 23.9047C112.503 23.877 112.578 23.8684 112.651 23.8799C112.724 23.8914 112.793 23.9226 112.85 23.97L116.85 27.35L113.47 23.35C113.413 23.2965 113.374 23.2275 113.356 23.1516C113.338 23.0758 113.342 22.9963 113.369 22.923C113.395 22.8497 113.443 22.7857 113.505 22.739C113.567 22.6923 113.642 22.6648 113.72 22.66Z" fill="#FFFF00"/>
<path d="M43.65 227.63L51.02 227.02L43.61 226.42C43.5615 226.415 43.5154 226.397 43.4764 226.367C43.4374 226.338 43.4071 226.299 43.3886 226.254C43.3702 226.209 43.3643 226.159 43.3716 226.111C43.3788 226.063 43.399 226.018 43.43 225.98L45.65 223.36L43.03 225.59C42.9934 225.622 42.9486 225.643 42.9008 225.65C42.8529 225.658 42.8038 225.652 42.7591 225.634C42.7144 225.615 42.6758 225.584 42.6477 225.544C42.6195 225.505 42.603 225.458 42.6 225.41L42.02 218L41.42 225.41C41.4149 225.458 41.3967 225.505 41.3674 225.544C41.3381 225.583 41.2989 225.613 41.2537 225.631C41.2086 225.65 41.1594 225.656 41.1112 225.648C41.063 225.641 41.0176 225.621 40.98 225.59L38.36 223.36L40.59 225.98C40.621 226.018 40.6412 226.063 40.6484 226.111C40.6557 226.159 40.6498 226.209 40.6314 226.254C40.6129 226.299 40.5826 226.338 40.5436 226.367C40.5046 226.397 40.4585 226.415 40.41 226.42L33 227.02L40.41 227.63C40.4584 227.633 40.505 227.65 40.5445 227.678C40.584 227.706 40.6148 227.744 40.6336 227.789C40.6523 227.834 40.6581 227.883 40.6504 227.931C40.6427 227.979 40.6218 228.023 40.59 228.06L38.36 230.68L41.02 228.46C41.0576 228.429 41.103 228.409 41.1512 228.402C41.1994 228.394 41.2486 228.4 41.2937 228.419C41.3389 228.437 41.3781 228.467 41.4074 228.506C41.4367 228.545 41.4549 228.592 41.46 228.64L42.06 236.05L42.67 228.64C42.673 228.592 42.6895 228.545 42.7177 228.506C42.7458 228.466 42.7844 228.435 42.8291 228.416C42.8738 228.398 42.9229 228.392 42.9708 228.4C43.0186 228.407 43.0634 228.428 43.1 228.46L45.72 230.68L43.5 228.06C43.4689 228.025 43.4477 227.983 43.4386 227.937C43.4294 227.892 43.4327 227.845 43.448 227.801C43.4633 227.757 43.4901 227.718 43.5257 227.688C43.5612 227.658 43.6041 227.638 43.65 227.63Z" fill="#FFFF00" fill-opacity="0.73"/>
<path d="M213.65 197.63L221.02 197.02L213.61 196.42C213.562 196.415 213.515 196.397 213.476 196.367C213.437 196.338 213.407 196.299 213.389 196.254C213.37 196.209 213.364 196.159 213.372 196.111C213.379 196.063 213.399 196.018 213.43 195.98L215.65 193.36L213.03 195.59C212.993 195.622 212.949 195.643 212.901 195.65C212.853 195.658 212.804 195.652 212.759 195.634C212.714 195.615 212.676 195.584 212.648 195.544C212.62 195.505 212.603 195.458 212.6 195.41L212.02 188L211.42 195.41C211.415 195.458 211.397 195.505 211.367 195.544C211.338 195.583 211.299 195.613 211.254 195.631C211.209 195.65 211.159 195.656 211.111 195.648C211.063 195.641 211.018 195.621 210.98 195.59L208.36 193.36L210.59 195.98C210.621 196.018 210.641 196.063 210.648 196.111C210.656 196.159 210.65 196.209 210.631 196.254C210.613 196.299 210.583 196.338 210.544 196.367C210.505 196.397 210.458 196.415 210.41 196.42L203 197.02L210.41 197.63C210.458 197.633 210.505 197.65 210.544 197.678C210.584 197.706 210.615 197.744 210.634 197.789C210.652 197.834 210.658 197.883 210.65 197.931C210.643 197.979 210.622 198.023 210.59 198.06L208.36 200.68L211.02 198.46C211.058 198.429 211.103 198.409 211.151 198.402C211.199 198.394 211.249 198.4 211.294 198.419C211.339 198.437 211.378 198.467 211.407 198.506C211.437 198.545 211.455 198.592 211.46 198.64L212.06 206.05L212.67 198.64C212.673 198.592 212.69 198.545 212.718 198.506C212.746 198.466 212.784 198.435 212.829 198.416C212.874 198.398 212.923 198.392 212.971 198.4C213.019 198.407 213.063 198.428 213.1 198.46L215.72 200.68L213.5 198.06C213.469 198.025 213.448 197.983 213.439 197.937C213.429 197.892 213.433 197.845 213.448 197.801C213.463 197.757 213.49 197.718 213.526 197.688C213.561 197.658 213.604 197.638 213.65 197.63Z" fill="#FFFF00" fill-opacity="0.73"/>
<path d="M253.65 137.63L261.02 137.02L253.61 136.42C253.562 136.415 253.515 136.397 253.476 136.367C253.437 136.338 253.407 136.299 253.389 136.254C253.37 136.209 253.364 136.159 253.372 136.111C253.379 136.063 253.399 136.018 253.43 135.98L255.65 133.36L253.03 135.59C252.993 135.622 252.949 135.643 252.901 135.65C252.853 135.658 252.804 135.652 252.759 135.634C252.714 135.615 252.676 135.584 252.648 135.544C252.62 135.505 252.603 135.458 252.6 135.41L252.02 128L251.42 135.41C251.415 135.458 251.397 135.505 251.367 135.544C251.338 135.583 251.299 135.613 251.254 135.631C251.209 135.65 251.159 135.656 251.111 135.648C251.063 135.641 251.018 135.621 250.98 135.59L248.36 133.36L250.59 135.98C250.621 136.018 250.641 136.063 250.648 136.111C250.656 136.159 250.65 136.209 250.631 136.254C250.613 136.299 250.583 136.338 250.544 136.367C250.505 136.397 250.458 136.415 250.41 136.42L243 137.02L250.41 137.63C250.458 137.633 250.505 137.65 250.544 137.678C250.584 137.706 250.615 137.744 250.634 137.789C250.652 137.834 250.658 137.883 250.65 137.931C250.643 137.979 250.622 138.023 250.59 138.06L248.36 140.68L251.02 138.46C251.058 138.429 251.103 138.409 251.151 138.402C251.199 138.394 251.249 138.4 251.294 138.419C251.339 138.437 251.378 138.467 251.407 138.506C251.437 138.545 251.455 138.592 251.46 138.64L252.06 146.05L252.67 138.64C252.673 138.592 252.69 138.545 252.718 138.506C252.746 138.466 252.784 138.435 252.829 138.416C252.874 138.398 252.923 138.392 252.971 138.4C253.019 138.407 253.063 138.428 253.1 138.46L255.72 140.68L253.5 138.06C253.469 138.025 253.448 137.983 253.439 137.937C253.429 137.892 253.433 137.845 253.448 137.801C253.463 137.757 253.49 137.718 253.526 137.688C253.561 137.658 253.604 137.638 253.65 137.63Z" fill="#FFFF00" fill-opacity="0.73"/>
<path d="M25.65 75.63L33.02 75.02L25.61 74.42C25.5615 74.4148 25.5154 74.3967 25.4764 74.3674C25.4374 74.3381 25.4071 74.2989 25.3886 74.2537C25.3702 74.2086 25.3643 74.1594 25.3716 74.1112C25.3788 74.063 25.399 74.0176 25.43 73.98L27.65 71.36L25.03 73.59C24.9934 73.6218 24.9486 73.6427 24.9008 73.6504C24.8529 73.6581 24.8038 73.6523 24.7591 73.6336C24.7144 73.6148 24.6758 73.584 24.6477 73.5445C24.6195 73.505 24.603 73.4584 24.6 73.41L24.02 66L23.42 73.41C23.4149 73.4585 23.3967 73.5046 23.3674 73.5436C23.3381 73.5826 23.2989 73.6129 23.2537 73.6314C23.2086 73.6498 23.1594 73.6557 23.1112 73.6484C23.063 73.6412 23.0176 73.621 22.98 73.59L20.36 71.36L22.59 73.98C22.621 74.0176 22.6412 74.063 22.6484 74.1112C22.6557 74.1594 22.6498 74.2086 22.6314 74.2537C22.6129 74.2989 22.5826 74.3381 22.5436 74.3674C22.5046 74.3967 22.4585 74.4148 22.41 74.42L15 75.02L22.41 75.63C22.4584 75.633 22.505 75.6495 22.5445 75.6777C22.584 75.7058 22.6148 75.7444 22.6336 75.7891C22.6523 75.8338 22.6581 75.8829 22.6504 75.9308C22.6427 75.9786 22.6218 76.0234 22.59 76.06L20.36 78.68L23.02 76.46C23.0576 76.429 23.103 76.4088 23.1512 76.4016C23.1994 76.3943 23.2486 76.4002 23.2937 76.4186C23.3389 76.4371 23.3781 76.4674 23.4074 76.5064C23.4367 76.5454 23.4549 76.5915 23.46 76.64L24.06 84.05L24.67 76.64C24.673 76.5916 24.6895 76.545 24.7177 76.5055C24.7458 76.466 24.7844 76.4352 24.8291 76.4164C24.8738 76.3977 24.9229 76.3919 24.9708 76.3996C25.0186 76.4073 25.0634 76.4282 25.1 76.46L27.72 78.68L25.5 76.06C25.4689 76.0254 25.4477 75.9831 25.4386 75.9375C25.4294 75.8918 25.4327 75.8446 25.448 75.8007C25.4633 75.7568 25.4901 75.7178 25.5257 75.6877C25.5612 75.6577 25.6041 75.6378 25.65 75.63Z" fill="#FFFF00" fill-opacity="0.73"/>
<path d="M178.21 94.67L189.49 93.75L178.21 92.83C178.136 92.8239 178.066 92.7976 178.006 92.754C177.947 92.7104 177.901 92.6511 177.873 92.5828C177.845 92.5145 177.836 92.4397 177.848 92.3669C177.86 92.294 177.892 92.2259 177.94 92.17L181.32 88.17L177.32 91.56C177.262 91.6077 177.193 91.6388 177.119 91.6498C177.045 91.6608 176.969 91.6514 176.9 91.6226C176.831 91.5937 176.772 91.5466 176.727 91.4862C176.683 91.4258 176.657 91.3545 176.65 91.28L175.73 80L174.83 91.25C174.826 91.3244 174.801 91.3961 174.758 91.4571C174.715 91.518 174.656 91.5657 174.587 91.5948C174.518 91.624 174.443 91.6333 174.369 91.6219C174.296 91.6104 174.227 91.5786 174.17 91.53L170.17 88.14L173.56 92.14C173.609 92.1965 173.64 92.2655 173.652 92.3392C173.663 92.4129 173.654 92.4883 173.625 92.5569C173.596 92.6255 173.548 92.6847 173.487 92.7276C173.426 92.7706 173.354 92.7956 173.28 92.8L162 93.72L173.28 94.64C173.355 94.6465 173.426 94.6733 173.486 94.7174C173.547 94.7615 173.594 94.8213 173.623 94.8904C173.651 94.9594 173.661 95.0349 173.65 95.1089C173.639 95.1829 173.608 95.2524 173.56 95.31L170.17 99.31L174.17 95.93C174.226 95.8818 174.294 95.8499 174.367 95.838C174.44 95.8261 174.514 95.8346 174.583 95.8626C174.651 95.8905 174.71 95.9369 174.754 95.9964C174.798 96.056 174.824 96.1264 174.83 96.2L175.75 107.48L176.67 96.25C176.678 96.1763 176.706 96.1063 176.751 96.0472C176.796 95.9882 176.856 95.9424 176.924 95.9147C176.993 95.887 177.068 95.8784 177.141 95.8899C177.214 95.9014 177.283 95.9326 177.34 95.98L181.34 99.36L177.96 95.36C177.903 95.3065 177.864 95.2375 177.846 95.1616C177.828 95.0858 177.832 95.0063 177.859 94.933C177.885 94.8597 177.933 94.7957 177.995 94.749C178.057 94.7023 178.132 94.6748 178.21 94.67Z" fill="#FFFF00"/>
<path d="M280.21 32.67L291.49 31.75L280.21 30.83C280.136 30.8239 280.066 30.7976 280.006 30.754C279.947 30.7104 279.901 30.6511 279.873 30.5828C279.845 30.5145 279.836 30.4397 279.848 30.3669C279.86 30.294 279.892 30.2259 279.94 30.17L283.32 26.17L279.32 29.56C279.262 29.6077 279.193 29.6388 279.119 29.6498C279.045 29.6608 278.969 29.6514 278.9 29.6226C278.831 29.5937 278.772 29.5466 278.727 29.4862C278.683 29.4258 278.657 29.3545 278.65 29.28L277.73 18L276.83 29.25C276.826 29.3244 276.801 29.3961 276.758 29.4571C276.715 29.518 276.656 29.5657 276.587 29.5948C276.518 29.624 276.443 29.6333 276.369 29.6219C276.296 29.6104 276.227 29.5786 276.17 29.53L272.17 26.14L275.56 30.14C275.609 30.1965 275.64 30.2655 275.652 30.3392C275.663 30.4129 275.654 30.4883 275.625 30.5569C275.596 30.6255 275.548 30.6847 275.487 30.7276C275.426 30.7706 275.354 30.7956 275.28 30.8L264 31.72L275.28 32.64C275.355 32.6465 275.426 32.6733 275.486 32.7174C275.547 32.7615 275.594 32.8213 275.623 32.8904C275.651 32.9594 275.661 33.0349 275.65 33.1089C275.639 33.1829 275.608 33.2524 275.56 33.31L272.17 37.31L276.17 33.93C276.226 33.8818 276.294 33.8499 276.367 33.838C276.44 33.8261 276.514 33.8346 276.583 33.8626C276.651 33.8905 276.71 33.9369 276.754 33.9964C276.798 34.056 276.824 34.1264 276.83 34.2L277.75 45.48L278.67 34.25C278.678 34.1763 278.706 34.1063 278.751 34.0472C278.796 33.9882 278.856 33.9424 278.924 33.9147C278.993 33.887 279.068 33.8784 279.141 33.8899C279.214 33.9014 279.283 33.9326 279.34 33.98L283.34 37.36L279.96 33.36C279.903 33.3065 279.864 33.2375 279.846 33.1616C279.828 33.0858 279.832 33.0063 279.859 32.933C279.885 32.8597 279.933 32.7957 279.995 32.749C280.057 32.7023 280.132 32.6748 280.21 32.67Z" fill="#FFFF00"/>
<path d="M133.72 172.66L145 171.74L133.72 170.82C133.646 170.814 133.576 170.788 133.516 170.744C133.457 170.7 133.411 170.641 133.383 170.573C133.355 170.504 133.346 170.43 133.358 170.357C133.37 170.284 133.402 170.216 133.45 170.16L136.83 166.16L132.83 169.55C132.772 169.598 132.703 169.629 132.629 169.64C132.555 169.651 132.479 169.641 132.41 169.613C132.341 169.584 132.282 169.537 132.237 169.476C132.193 169.416 132.167 169.345 132.16 169.27L131.24 157.99L130.34 169.24C130.336 169.314 130.311 169.386 130.268 169.447C130.225 169.508 130.166 169.556 130.097 169.585C130.028 169.614 129.953 169.623 129.879 169.612C129.806 169.6 129.737 169.569 129.68 169.52L125.68 166.13L129.07 170.13C129.119 170.187 129.15 170.256 129.162 170.329C129.173 170.403 129.164 170.478 129.135 170.547C129.106 170.616 129.058 170.675 128.997 170.718C128.936 170.761 128.864 170.786 128.79 170.79L117.51 171.71L128.79 172.63C128.865 172.637 128.936 172.663 128.996 172.707C129.057 172.752 129.104 172.811 129.133 172.88C129.161 172.949 129.171 173.025 129.16 173.099C129.149 173.173 129.118 173.242 129.07 173.3L125.68 177.3L129.68 173.92C129.736 173.872 129.804 173.84 129.877 173.828C129.95 173.816 130.024 173.825 130.093 173.853C130.161 173.881 130.22 173.927 130.264 173.986C130.308 174.046 130.334 174.116 130.34 174.19L131.26 185.47L132.18 174.24C132.188 174.166 132.216 174.096 132.261 174.037C132.306 173.978 132.366 173.932 132.434 173.905C132.503 173.877 132.578 173.868 132.651 173.88C132.724 173.891 132.793 173.923 132.85 173.97L136.85 177.35L133.47 173.35C133.413 173.296 133.374 173.228 133.356 173.152C133.338 173.076 133.342 172.996 133.369 172.923C133.395 172.85 133.443 172.786 133.505 172.739C133.567 172.692 133.642 172.665 133.72 172.66Z" fill="#FFFF00"/>
<path d="M53.72 142.66L65 141.74L53.72 140.82C53.6464 140.814 53.576 140.788 53.5164 140.744C53.4569 140.7 53.4106 140.641 53.3826 140.573C53.3547 140.504 53.3462 140.43 53.358 140.357C53.3699 140.284 53.4018 140.216 53.45 140.16L56.83 136.16L52.83 139.55C52.7724 139.598 52.7029 139.629 52.6289 139.64C52.5549 139.651 52.4794 139.641 52.4104 139.613C52.3414 139.584 52.2816 139.537 52.2374 139.476C52.1933 139.416 52.1665 139.345 52.16 139.27L51.24 127.99L50.34 139.24C50.3356 139.314 50.3106 139.386 50.2676 139.447C50.2247 139.508 50.1655 139.556 50.0969 139.585C50.0283 139.614 49.9529 139.623 49.8792 139.612C49.8055 139.6 49.7366 139.569 49.68 139.52L45.68 136.13L49.07 140.13C49.1186 140.187 49.1504 140.256 49.1619 140.329C49.1733 140.403 49.164 140.478 49.1348 140.547C49.1057 140.616 49.058 140.675 48.9971 140.718C48.9362 140.761 48.8644 140.786 48.79 140.79L37.51 141.71L48.79 142.63C48.8645 142.637 48.9358 142.663 48.9962 142.707C49.0566 142.752 49.1037 142.811 49.1326 142.88C49.1614 142.949 49.1708 143.025 49.1598 143.099C49.1488 143.173 49.1177 143.242 49.07 143.3L45.68 147.3L49.68 143.92C49.7359 143.872 49.804 143.84 49.8769 143.828C49.9498 143.816 50.0245 143.825 50.0928 143.853C50.1611 143.881 50.2204 143.927 50.264 143.986C50.3077 144.046 50.3339 144.116 50.34 144.19L51.26 155.47L52.18 144.24C52.1881 144.166 52.2161 144.096 52.2608 144.037C52.3056 143.978 52.3656 143.932 52.4343 143.905C52.503 143.877 52.578 143.868 52.6512 143.88C52.7244 143.891 52.7931 143.923 52.85 143.97L56.85 147.35L53.47 143.35C53.4133 143.296 53.3735 143.228 53.3555 143.152C53.3375 143.076 53.3421 142.996 53.3686 142.923C53.3952 142.85 53.4426 142.786 53.505 142.739C53.5675 142.692 53.6422 142.665 53.72 142.66Z" fill="#FFFF00"/>
</svg>
