<svg width="305" height="230" viewBox="0 0 305 230" fill="none" xmlns="http://www.w3.org/2000/svg">
<rect width="305" height="230" fill="#DCB2F0"/>
<path d="M43.65 77.63L51.02 77.02L43.61 76.42C43.5615 76.4148 43.5154 76.3967 43.4764 76.3674C43.4374 76.3381 43.4071 76.2989 43.3886 76.2537C43.3702 76.2086 43.3643 76.1594 43.3716 76.1112C43.3788 76.063 43.399 76.0176 43.43 75.98L45.65 73.36L43.03 75.59C42.9934 75.6218 42.9486 75.6427 42.9008 75.6504C42.8529 75.6581 42.8038 75.6523 42.7591 75.6336C42.7144 75.6148 42.6758 75.584 42.6477 75.5445C42.6195 75.505 42.603 75.4584 42.6 75.41L42.02 68L41.42 75.41C41.4149 75.4585 41.3967 75.5046 41.3674 75.5436C41.3381 75.5826 41.2989 75.6129 41.2537 75.6314C41.2086 75.6498 41.1594 75.6557 41.1112 75.6484C41.063 75.6412 41.0176 75.621 40.98 75.59L38.36 73.36L40.59 75.98C40.621 76.0176 40.6412 76.063 40.6484 76.1112C40.6557 76.1594 40.6498 76.2086 40.6314 76.2537C40.6129 76.2989 40.5826 76.3381 40.5436 76.3674C40.5046 76.3967 40.4585 76.4148 40.41 76.42L33 77.02L40.41 77.63C40.4584 77.633 40.505 77.6495 40.5445 77.6777C40.584 77.7058 40.6148 77.7444 40.6336 77.7891C40.6523 77.8338 40.6581 77.8829 40.6504 77.9308C40.6427 77.9786 40.6218 78.0234 40.59 78.06L38.36 80.68L41.02 78.46C41.0576 78.429 41.103 78.4088 41.1512 78.4016C41.1994 78.3943 41.2486 78.4002 41.2937 78.4186C41.3389 78.4371 41.3781 78.4674 41.4074 78.5064C41.4367 78.5454 41.4549 78.5915 41.46 78.64L42.06 86.05L42.67 78.64C42.673 78.5916 42.6895 78.545 42.7177 78.5055C42.7458 78.466 42.7844 78.4352 42.8291 78.4164C42.8738 78.3977 42.9229 78.3919 42.9708 78.3996C43.0186 78.4073 43.0634 78.4282 43.1 78.46L45.72 80.68L43.5 78.06C43.4689 78.0254 43.4477 77.9831 43.4386 77.9375C43.4294 77.8918 43.4327 77.8446 43.448 77.8007C43.4633 77.7568 43.4901 77.7178 43.5257 77.6877C43.5612 77.6577 43.6041 77.6378 43.65 77.63Z" fill="#FFFF00" fill-opacity="0.73"/>
<path d="M213.65 47.63L221.02 47.02L213.61 46.42C213.562 46.4148 213.515 46.3967 213.476 46.3674C213.437 46.3381 213.407 46.2989 213.389 46.2537C213.37 46.2086 213.364 46.1594 213.372 46.1112C213.379 46.063 213.399 46.0176 213.43 45.98L215.65 43.36L213.03 45.59C212.993 45.6218 212.949 45.6427 212.901 45.6504C212.853 45.6581 212.804 45.6523 212.759 45.6336C212.714 45.6148 212.676 45.584 212.648 45.5445C212.62 45.505 212.603 45.4584 212.6 45.41L212.02 38L211.42 45.41C211.415 45.4585 211.397 45.5046 211.367 45.5436C211.338 45.5826 211.299 45.6129 211.254 45.6314C211.209 45.6498 211.159 45.6557 211.111 45.6484C211.063 45.6412 211.018 45.621 210.98 45.59L208.36 43.36L210.59 45.98C210.621 46.0176 210.641 46.063 210.648 46.1112C210.656 46.1594 210.65 46.2086 210.631 46.2537C210.613 46.2989 210.583 46.3381 210.544 46.3674C210.505 46.3967 210.458 46.4148 210.41 46.42L203 47.02L210.41 47.63C210.458 47.633 210.505 47.6495 210.544 47.6777C210.584 47.7058 210.615 47.7444 210.634 47.7891C210.652 47.8338 210.658 47.8829 210.65 47.9308C210.643 47.9786 210.622 48.0234 210.59 48.06L208.36 50.68L211.02 48.46C211.058 48.429 211.103 48.4088 211.151 48.4016C211.199 48.3943 211.249 48.4002 211.294 48.4186C211.339 48.4371 211.378 48.4674 211.407 48.5064C211.437 48.5454 211.455 48.5915 211.46 48.64L212.06 56.05L212.67 48.64C212.673 48.5916 212.69 48.545 212.718 48.5055C212.746 48.466 212.784 48.4352 212.829 48.4164C212.874 48.3977 212.923 48.3919 212.971 48.3996C213.019 48.4073 213.063 48.4282 213.1 48.46L215.72 50.68L213.5 48.06C213.469 48.0254 213.448 47.9831 213.439 47.9375C213.429 47.8918 213.433 47.8446 213.448 47.8007C213.463 47.7568 213.49 47.7178 213.526 47.6877C213.561 47.6577 213.604 47.6378 213.65 47.63Z" fill="#FFFF00" fill-opacity="0.73"/>
<path d="M83.65 167.63L91.02 167.02L83.61 166.42C83.5615 166.415 83.5154 166.397 83.4764 166.367C83.4374 166.338 83.4071 166.299 83.3886 166.254C83.3702 166.209 83.3643 166.159 83.3716 166.111C83.3788 166.063 83.399 166.018 83.43 165.98L85.65 163.36L83.03 165.59C82.9934 165.622 82.9486 165.643 82.9008 165.65C82.8529 165.658 82.8038 165.652 82.7591 165.634C82.7144 165.615 82.6758 165.584 82.6477 165.544C82.6195 165.505 82.603 165.458 82.6 165.41L82.02 158L81.42 165.41C81.4149 165.458 81.3967 165.505 81.3674 165.544C81.3381 165.583 81.2989 165.613 81.2537 165.631C81.2086 165.65 81.1594 165.656 81.1112 165.648C81.063 165.641 81.0176 165.621 80.98 165.59L78.36 163.36L80.59 165.98C80.621 166.018 80.6412 166.063 80.6484 166.111C80.6557 166.159 80.6498 166.209 80.6314 166.254C80.6129 166.299 80.5826 166.338 80.5436 166.367C80.5046 166.397 80.4585 166.415 80.41 166.42L73 167.02L80.41 167.63C80.4584 167.633 80.505 167.65 80.5445 167.678C80.584 167.706 80.6148 167.744 80.6336 167.789C80.6523 167.834 80.6581 167.883 80.6504 167.931C80.6427 167.979 80.6218 168.023 80.59 168.06L78.36 170.68L81.02 168.46C81.0576 168.429 81.103 168.409 81.1512 168.402C81.1994 168.394 81.2486 168.4 81.2937 168.419C81.3389 168.437 81.3781 168.467 81.4074 168.506C81.4367 168.545 81.4549 168.592 81.46 168.64L82.06 176.05L82.67 168.64C82.673 168.592 82.6895 168.545 82.7177 168.506C82.7458 168.466 82.7844 168.435 82.8291 168.416C82.8738 168.398 82.9229 168.392 82.9708 168.4C83.0186 168.407 83.0634 168.428 83.1 168.46L85.72 170.68L83.5 168.06C83.4689 168.025 83.4477 167.983 83.4386 167.937C83.4294 167.892 83.4327 167.845 83.448 167.801C83.4633 167.757 83.4901 167.718 83.5257 167.688C83.5612 167.658 83.6041 167.638 83.65 167.63Z" fill="#FFFF00" fill-opacity="0.73"/>
<path d="M194.72 185.66L206 184.74L194.72 183.82C194.646 183.814 194.576 183.788 194.516 183.744C194.457 183.7 194.411 183.641 194.383 183.573C194.355 183.504 194.346 183.43 194.358 183.357C194.37 183.284 194.402 183.216 194.45 183.16L197.83 179.16L193.83 182.55C193.772 182.598 193.703 182.629 193.629 182.64C193.555 182.651 193.479 182.641 193.41 182.613C193.341 182.584 193.282 182.537 193.237 182.476C193.193 182.416 193.167 182.345 193.16 182.27L192.24 170.99L191.34 182.24C191.336 182.314 191.311 182.386 191.268 182.447C191.225 182.508 191.166 182.556 191.097 182.585C191.028 182.614 190.953 182.623 190.879 182.612C190.806 182.6 190.737 182.569 190.68 182.52L186.68 179.13L190.07 183.13C190.119 183.187 190.15 183.256 190.162 183.329C190.173 183.403 190.164 183.478 190.135 183.547C190.106 183.616 190.058 183.675 189.997 183.718C189.936 183.761 189.864 183.786 189.79 183.79L178.51 184.71L189.79 185.63C189.865 185.637 189.936 185.663 189.996 185.707C190.057 185.752 190.104 185.811 190.133 185.88C190.161 185.949 190.171 186.025 190.16 186.099C190.149 186.173 190.118 186.242 190.07 186.3L186.68 190.3L190.68 186.92C190.736 186.872 190.804 186.84 190.877 186.828C190.95 186.816 191.024 186.825 191.093 186.853C191.161 186.881 191.22 186.927 191.264 186.986C191.308 187.046 191.334 187.116 191.34 187.19L192.26 198.47L193.18 187.24C193.188 187.166 193.216 187.096 193.261 187.037C193.306 186.978 193.366 186.932 193.434 186.905C193.503 186.877 193.578 186.868 193.651 186.88C193.724 186.891 193.793 186.923 193.85 186.97L197.85 190.35L194.47 186.35C194.413 186.296 194.374 186.228 194.356 186.152C194.338 186.076 194.342 185.996 194.369 185.923C194.395 185.85 194.443 185.786 194.505 185.739C194.567 185.692 194.642 185.665 194.72 185.66Z" fill="#FFFF00"/>
<path d="M263.72 92.66L275 91.74L263.72 90.82C263.646 90.814 263.576 90.7876 263.516 90.744C263.457 90.7004 263.411 90.6411 263.383 90.5728C263.355 90.5045 263.346 90.4298 263.358 90.3569C263.37 90.284 263.402 90.2159 263.45 90.16L266.83 86.16L262.83 89.55C262.772 89.5977 262.703 89.6288 262.629 89.6398C262.555 89.6508 262.479 89.6414 262.41 89.6126C262.341 89.5837 262.282 89.5366 262.237 89.4762C262.193 89.4158 262.167 89.3445 262.16 89.27L261.24 77.99L260.34 89.24C260.336 89.3144 260.311 89.3861 260.268 89.4471C260.225 89.508 260.166 89.5557 260.097 89.5849C260.028 89.614 259.953 89.6233 259.879 89.6119C259.806 89.6004 259.737 89.5686 259.68 89.52L255.68 86.13L259.07 90.13C259.119 90.1865 259.15 90.2556 259.162 90.3292C259.173 90.4029 259.164 90.4783 259.135 90.5469C259.106 90.6155 259.058 90.6747 258.997 90.7176C258.936 90.7606 258.864 90.7856 258.79 90.79L247.51 91.71L258.79 92.63C258.865 92.6365 258.936 92.6633 258.996 92.7074C259.057 92.7515 259.104 92.8114 259.133 92.8804C259.161 92.9494 259.171 93.0249 259.16 93.0989C259.149 93.1729 259.118 93.2424 259.07 93.3L255.68 97.3L259.68 93.92C259.736 93.8718 259.804 93.8399 259.877 93.828C259.95 93.8162 260.024 93.8246 260.093 93.8526C260.161 93.8806 260.22 93.9269 260.264 93.9864C260.308 94.046 260.334 94.1164 260.34 94.19L261.26 105.47L262.18 94.24C262.188 94.1664 262.216 94.0963 262.261 94.0372C262.306 93.9782 262.366 93.9324 262.434 93.9047C262.503 93.877 262.578 93.8684 262.651 93.8799C262.724 93.8914 262.793 93.9226 262.85 93.97L266.85 97.35L263.47 93.35C263.413 93.2965 263.374 93.2275 263.356 93.1516C263.338 93.0758 263.342 92.9963 263.369 92.923C263.395 92.8497 263.443 92.7857 263.505 92.739C263.567 92.6923 263.642 92.6648 263.72 92.66Z" fill="#FFFF00"/>
<path d="M133.72 22.66L145 21.74L133.72 20.82C133.646 20.814 133.576 20.7876 133.516 20.744C133.457 20.7004 133.411 20.6411 133.383 20.5728C133.355 20.5045 133.346 20.4298 133.358 20.3569C133.37 20.284 133.402 20.2159 133.45 20.16L136.83 16.16L132.83 19.55C132.772 19.5977 132.703 19.6288 132.629 19.6398C132.555 19.6508 132.479 19.6414 132.41 19.6126C132.341 19.5837 132.282 19.5366 132.237 19.4762C132.193 19.4158 132.167 19.3445 132.16 19.27L131.24 7.99001L130.34 19.24C130.336 19.3144 130.311 19.3861 130.268 19.4471C130.225 19.508 130.166 19.5557 130.097 19.5849C130.028 19.614 129.953 19.6233 129.879 19.6119C129.806 19.6004 129.737 19.5686 129.68 19.52L125.68 16.13L129.07 20.13C129.119 20.1865 129.15 20.2556 129.162 20.3292C129.173 20.4029 129.164 20.4783 129.135 20.5469C129.106 20.6155 129.058 20.6747 128.997 20.7176C128.936 20.7606 128.864 20.7856 128.79 20.79L117.51 21.71L128.79 22.63C128.865 22.6365 128.936 22.6633 128.996 22.7074C129.057 22.7515 129.104 22.8114 129.133 22.8804C129.161 22.9494 129.171 23.0249 129.16 23.0989C129.149 23.1729 129.118 23.2424 129.07 23.3L125.68 27.3L129.68 23.92C129.736 23.8718 129.804 23.8399 129.877 23.828C129.95 23.8162 130.024 23.8246 130.093 23.8526C130.161 23.8806 130.22 23.9269 130.264 23.9864C130.308 24.046 130.334 24.1164 130.34 24.19L131.26 35.47L132.18 24.24C132.188 24.1664 132.216 24.0963 132.261 24.0372C132.306 23.9782 132.366 23.9324 132.434 23.9047C132.503 23.877 132.578 23.8684 132.651 23.8799C132.724 23.8914 132.793 23.9226 132.85 23.97L136.85 27.35L133.47 23.35C133.413 23.2965 133.374 23.2275 133.356 23.1516C133.338 23.0758 133.342 22.9963 133.369 22.923C133.395 22.8497 133.443 22.7857 133.505 22.739C133.567 22.6923 133.642 22.6648 133.72 22.66Z" fill="#FFFF00"/>
</svg>
