<svg width="305" height="239" viewBox="0 0 305 239" fill="none" xmlns="http://www.w3.org/2000/svg">
<rect width="305" height="230" fill="#DCB2F0"/>
<path d="M43.65 117.63L51.02 117.02L43.61 116.42C43.5615 116.415 43.5154 116.397 43.4764 116.367C43.4374 116.338 43.4071 116.299 43.3886 116.254C43.3702 116.209 43.3643 116.159 43.3716 116.111C43.3788 116.063 43.399 116.018 43.43 115.98L45.65 113.36L43.03 115.59C42.9934 115.622 42.9486 115.643 42.9008 115.65C42.8529 115.658 42.8038 115.652 42.7591 115.634C42.7144 115.615 42.6758 115.584 42.6477 115.544C42.6195 115.505 42.603 115.458 42.6 115.41L42.02 108L41.42 115.41C41.4149 115.458 41.3967 115.505 41.3674 115.544C41.3381 115.583 41.2989 115.613 41.2537 115.631C41.2086 115.65 41.1594 115.656 41.1112 115.648C41.063 115.641 41.0176 115.621 40.98 115.59L38.36 113.36L40.59 115.98C40.621 116.018 40.6412 116.063 40.6484 116.111C40.6557 116.159 40.6498 116.209 40.6314 116.254C40.6129 116.299 40.5826 116.338 40.5436 116.367C40.5046 116.397 40.4585 116.415 40.41 116.42L33 117.02L40.41 117.63C40.4584 117.633 40.505 117.65 40.5445 117.678C40.584 117.706 40.6148 117.744 40.6336 117.789C40.6523 117.834 40.6581 117.883 40.6504 117.931C40.6427 117.979 40.6218 118.023 40.59 118.06L38.36 120.68L41.02 118.46C41.0576 118.429 41.103 118.409 41.1512 118.402C41.1994 118.394 41.2486 118.4 41.2937 118.419C41.3389 118.437 41.3781 118.467 41.4074 118.506C41.4367 118.545 41.4549 118.592 41.46 118.64L42.06 126.05L42.67 118.64C42.673 118.592 42.6895 118.545 42.7177 118.506C42.7458 118.466 42.7844 118.435 42.8291 118.416C42.8738 118.398 42.9229 118.392 42.9708 118.4C43.0186 118.407 43.0634 118.428 43.1 118.46L45.72 120.68L43.5 118.06C43.4689 118.025 43.4477 117.983 43.4386 117.937C43.4294 117.892 43.4327 117.845 43.448 117.801C43.4633 117.757 43.4901 117.718 43.5257 117.688C43.5612 117.658 43.6041 117.638 43.65 117.63Z" fill="#FFFF00" fill-opacity="0.73"/>
<path d="M213.65 87.63L221.02 87.02L213.61 86.42C213.562 86.4148 213.515 86.3967 213.476 86.3674C213.437 86.3381 213.407 86.2989 213.389 86.2537C213.37 86.2086 213.364 86.1594 213.372 86.1112C213.379 86.063 213.399 86.0176 213.43 85.98L215.65 83.36L213.03 85.59C212.993 85.6218 212.949 85.6427 212.901 85.6504C212.853 85.6581 212.804 85.6523 212.759 85.6336C212.714 85.6148 212.676 85.584 212.648 85.5445C212.62 85.505 212.603 85.4584 212.6 85.41L212.02 78L211.42 85.41C211.415 85.4585 211.397 85.5046 211.367 85.5436C211.338 85.5826 211.299 85.6129 211.254 85.6314C211.209 85.6498 211.159 85.6557 211.111 85.6484C211.063 85.6412 211.018 85.621 210.98 85.59L208.36 83.36L210.59 85.98C210.621 86.0176 210.641 86.063 210.648 86.1112C210.656 86.1594 210.65 86.2086 210.631 86.2537C210.613 86.2989 210.583 86.3381 210.544 86.3674C210.505 86.3967 210.458 86.4148 210.41 86.42L203 87.02L210.41 87.63C210.458 87.633 210.505 87.6495 210.544 87.6777C210.584 87.7058 210.615 87.7444 210.634 87.7891C210.652 87.8338 210.658 87.8829 210.65 87.9308C210.643 87.9786 210.622 88.0234 210.59 88.06L208.36 90.68L211.02 88.46C211.058 88.429 211.103 88.4088 211.151 88.4016C211.199 88.3943 211.249 88.4002 211.294 88.4186C211.339 88.4371 211.378 88.4674 211.407 88.5064C211.437 88.5454 211.455 88.5915 211.46 88.64L212.06 96.05L212.67 88.64C212.673 88.5916 212.69 88.545 212.718 88.5055C212.746 88.466 212.784 88.4352 212.829 88.4164C212.874 88.3977 212.923 88.3919 212.971 88.3996C213.019 88.4073 213.063 88.4282 213.1 88.46L215.72 90.68L213.5 88.06C213.469 88.0254 213.448 87.9831 213.439 87.9375C213.429 87.8918 213.433 87.8446 213.448 87.8007C213.463 87.7568 213.49 87.7178 213.526 87.6877C213.561 87.6577 213.604 87.6378 213.65 87.63Z" fill="#FFFF00" fill-opacity="0.73"/>
<path d="M253.65 27.63L261.02 27.02L253.61 26.42C253.562 26.4148 253.515 26.3967 253.476 26.3674C253.437 26.3381 253.407 26.2989 253.389 26.2537C253.37 26.2086 253.364 26.1594 253.372 26.1112C253.379 26.063 253.399 26.0176 253.43 25.98L255.65 23.36L253.03 25.59C252.993 25.6218 252.949 25.6427 252.901 25.6504C252.853 25.6581 252.804 25.6523 252.759 25.6336C252.714 25.6148 252.676 25.584 252.648 25.5445C252.62 25.505 252.603 25.4584 252.6 25.41L252.02 18L251.42 25.41C251.415 25.4585 251.397 25.5046 251.367 25.5436C251.338 25.5826 251.299 25.6129 251.254 25.6314C251.209 25.6498 251.159 25.6557 251.111 25.6484C251.063 25.6412 251.018 25.621 250.98 25.59L248.36 23.36L250.59 25.98C250.621 26.0176 250.641 26.063 250.648 26.1112C250.656 26.1594 250.65 26.2086 250.631 26.2537C250.613 26.2989 250.583 26.3381 250.544 26.3674C250.505 26.3967 250.458 26.4148 250.41 26.42L243 27.02L250.41 27.63C250.458 27.633 250.505 27.6495 250.544 27.6777C250.584 27.7058 250.615 27.7444 250.634 27.7891C250.652 27.8338 250.658 27.8829 250.65 27.9308C250.643 27.9786 250.622 28.0234 250.59 28.06L248.36 30.68L251.02 28.46C251.058 28.429 251.103 28.4088 251.151 28.4016C251.199 28.3943 251.249 28.4002 251.294 28.4186C251.339 28.4371 251.378 28.4674 251.407 28.5064C251.437 28.5454 251.455 28.5915 251.46 28.64L252.06 36.05L252.67 28.64C252.673 28.5916 252.69 28.545 252.718 28.5055C252.746 28.466 252.784 28.4352 252.829 28.4164C252.874 28.3977 252.923 28.3919 252.971 28.3996C253.019 28.4073 253.063 28.4282 253.1 28.46L255.72 30.68L253.5 28.06C253.469 28.0254 253.448 27.9831 253.439 27.9375C253.429 27.8918 253.433 27.8446 253.448 27.8007C253.463 27.7568 253.49 27.7178 253.526 27.6877C253.561 27.6577 253.604 27.6378 253.65 27.63Z" fill="#FFFF00" fill-opacity="0.73"/>
<path d="M83.65 207.63L91.02 207.02L83.61 206.42C83.5615 206.415 83.5154 206.397 83.4764 206.367C83.4374 206.338 83.4071 206.299 83.3886 206.254C83.3702 206.209 83.3643 206.159 83.3716 206.111C83.3788 206.063 83.399 206.018 83.43 205.98L85.65 203.36L83.03 205.59C82.9934 205.622 82.9486 205.643 82.9008 205.65C82.8529 205.658 82.8038 205.652 82.7591 205.634C82.7144 205.615 82.6758 205.584 82.6477 205.544C82.6195 205.505 82.603 205.458 82.6 205.41L82.02 198L81.42 205.41C81.4149 205.458 81.3967 205.505 81.3674 205.544C81.3381 205.583 81.2989 205.613 81.2537 205.631C81.2086 205.65 81.1594 205.656 81.1112 205.648C81.063 205.641 81.0176 205.621 80.98 205.59L78.36 203.36L80.59 205.98C80.621 206.018 80.6412 206.063 80.6484 206.111C80.6557 206.159 80.6498 206.209 80.6314 206.254C80.6129 206.299 80.5826 206.338 80.5436 206.367C80.5046 206.397 80.4585 206.415 80.41 206.42L73 207.02L80.41 207.63C80.4584 207.633 80.505 207.65 80.5445 207.678C80.584 207.706 80.6148 207.744 80.6336 207.789C80.6523 207.834 80.6581 207.883 80.6504 207.931C80.6427 207.979 80.6218 208.023 80.59 208.06L78.36 210.68L81.02 208.46C81.0576 208.429 81.103 208.409 81.1512 208.402C81.1994 208.394 81.2486 208.4 81.2937 208.419C81.3389 208.437 81.3781 208.467 81.4074 208.506C81.4367 208.545 81.4549 208.592 81.46 208.64L82.06 216.05L82.67 208.64C82.673 208.592 82.6895 208.545 82.7177 208.506C82.7458 208.466 82.7844 208.435 82.8291 208.416C82.8738 208.398 82.9229 208.392 82.9708 208.4C83.0186 208.407 83.0634 208.428 83.1 208.46L85.72 210.68L83.5 208.06C83.4689 208.025 83.4477 207.983 83.4386 207.937C83.4294 207.892 83.4327 207.845 83.448 207.801C83.4633 207.757 83.4901 207.718 83.5257 207.688C83.5612 207.658 83.6041 207.638 83.65 207.63Z" fill="#FFFF00" fill-opacity="0.73"/>
<path d="M194.72 225.66L206 224.74L194.72 223.82C194.646 223.814 194.576 223.788 194.516 223.744C194.457 223.7 194.411 223.641 194.383 223.573C194.355 223.504 194.346 223.43 194.358 223.357C194.37 223.284 194.402 223.216 194.45 223.16L197.83 219.16L193.83 222.55C193.772 222.598 193.703 222.629 193.629 222.64C193.555 222.651 193.479 222.641 193.41 222.613C193.341 222.584 193.282 222.537 193.237 222.476C193.193 222.416 193.167 222.345 193.16 222.27L192.24 210.99L191.34 222.24C191.336 222.314 191.311 222.386 191.268 222.447C191.225 222.508 191.166 222.556 191.097 222.585C191.028 222.614 190.953 222.623 190.879 222.612C190.806 222.6 190.737 222.569 190.68 222.52L186.68 219.13L190.07 223.13C190.119 223.187 190.15 223.256 190.162 223.329C190.173 223.403 190.164 223.478 190.135 223.547C190.106 223.616 190.058 223.675 189.997 223.718C189.936 223.761 189.864 223.786 189.79 223.79L178.51 224.71L189.79 225.63C189.865 225.637 189.936 225.663 189.996 225.707C190.057 225.752 190.104 225.811 190.133 225.88C190.161 225.949 190.171 226.025 190.16 226.099C190.149 226.173 190.118 226.242 190.07 226.3L186.68 230.3L190.68 226.92C190.736 226.872 190.804 226.84 190.877 226.828C190.95 226.816 191.024 226.825 191.093 226.853C191.161 226.881 191.22 226.927 191.264 226.986C191.308 227.046 191.334 227.116 191.34 227.19L192.26 238.47L193.18 227.24C193.188 227.166 193.216 227.096 193.261 227.037C193.306 226.978 193.366 226.932 193.434 226.905C193.503 226.877 193.578 226.868 193.651 226.88C193.724 226.891 193.793 226.923 193.85 226.97L197.85 230.35L194.47 226.35C194.413 226.296 194.374 226.228 194.356 226.152C194.338 226.076 194.342 225.996 194.369 225.923C194.395 225.85 194.443 225.786 194.505 225.739C194.567 225.692 194.642 225.665 194.72 225.66Z" fill="#FFFF00"/>
<path d="M263.72 132.66L275 131.74L263.72 130.82C263.646 130.814 263.576 130.788 263.516 130.744C263.457 130.7 263.411 130.641 263.383 130.573C263.355 130.504 263.346 130.43 263.358 130.357C263.37 130.284 263.402 130.216 263.45 130.16L266.83 126.16L262.83 129.55C262.772 129.598 262.703 129.629 262.629 129.64C262.555 129.651 262.479 129.641 262.41 129.613C262.341 129.584 262.282 129.537 262.237 129.476C262.193 129.416 262.167 129.345 262.16 129.27L261.24 117.99L260.34 129.24C260.336 129.314 260.311 129.386 260.268 129.447C260.225 129.508 260.166 129.556 260.097 129.585C260.028 129.614 259.953 129.623 259.879 129.612C259.806 129.6 259.737 129.569 259.68 129.52L255.68 126.13L259.07 130.13C259.119 130.187 259.15 130.256 259.162 130.329C259.173 130.403 259.164 130.478 259.135 130.547C259.106 130.616 259.058 130.675 258.997 130.718C258.936 130.761 258.864 130.786 258.79 130.79L247.51 131.71L258.79 132.63C258.865 132.637 258.936 132.663 258.996 132.707C259.057 132.752 259.104 132.811 259.133 132.88C259.161 132.949 259.171 133.025 259.16 133.099C259.149 133.173 259.118 133.242 259.07 133.3L255.68 137.3L259.68 133.92C259.736 133.872 259.804 133.84 259.877 133.828C259.95 133.816 260.024 133.825 260.093 133.853C260.161 133.881 260.22 133.927 260.264 133.986C260.308 134.046 260.334 134.116 260.34 134.19L261.26 145.47L262.18 134.24C262.188 134.166 262.216 134.096 262.261 134.037C262.306 133.978 262.366 133.932 262.434 133.905C262.503 133.877 262.578 133.868 262.651 133.88C262.724 133.891 262.793 133.923 262.85 133.97L266.85 137.35L263.47 133.35C263.413 133.296 263.374 133.228 263.356 133.152C263.338 133.076 263.342 132.996 263.369 132.923C263.395 132.85 263.443 132.786 263.505 132.739C263.567 132.692 263.642 132.665 263.72 132.66Z" fill="#FFFF00"/>
<path d="M133.72 62.66L145 61.74L133.72 60.82C133.646 60.814 133.576 60.7876 133.516 60.744C133.457 60.7004 133.411 60.6411 133.383 60.5728C133.355 60.5045 133.346 60.4298 133.358 60.3569C133.37 60.284 133.402 60.2159 133.45 60.16L136.83 56.16L132.83 59.55C132.772 59.5977 132.703 59.6288 132.629 59.6398C132.555 59.6508 132.479 59.6414 132.41 59.6126C132.341 59.5837 132.282 59.5366 132.237 59.4762C132.193 59.4158 132.167 59.3445 132.16 59.27L131.24 47.99L130.34 59.24C130.336 59.3144 130.311 59.3861 130.268 59.4471C130.225 59.508 130.166 59.5557 130.097 59.5849C130.028 59.614 129.953 59.6233 129.879 59.6119C129.806 59.6004 129.737 59.5686 129.68 59.52L125.68 56.13L129.07 60.13C129.119 60.1865 129.15 60.2556 129.162 60.3292C129.173 60.4029 129.164 60.4783 129.135 60.5469C129.106 60.6155 129.058 60.6747 128.997 60.7176C128.936 60.7606 128.864 60.7856 128.79 60.79L117.51 61.71L128.79 62.63C128.865 62.6365 128.936 62.6633 128.996 62.7074C129.057 62.7515 129.104 62.8114 129.133 62.8804C129.161 62.9494 129.171 63.0249 129.16 63.0989C129.149 63.1729 129.118 63.2424 129.07 63.3L125.68 67.3L129.68 63.92C129.736 63.8718 129.804 63.8399 129.877 63.828C129.95 63.8162 130.024 63.8246 130.093 63.8526C130.161 63.8806 130.22 63.9269 130.264 63.9864C130.308 64.046 130.334 64.1164 130.34 64.19L131.26 75.47L132.18 64.24C132.188 64.1664 132.216 64.0963 132.261 64.0372C132.306 63.9782 132.366 63.9324 132.434 63.9047C132.503 63.877 132.578 63.8684 132.651 63.8799C132.724 63.8914 132.793 63.9226 132.85 63.97L136.85 67.35L133.47 63.35C133.413 63.2965 133.374 63.2275 133.356 63.1516C133.338 63.0758 133.342 62.9963 133.369 62.923C133.395 62.8497 133.443 62.7857 133.505 62.739C133.567 62.6923 133.642 62.6648 133.72 62.66Z" fill="#FFFF00"/>
<path d="M53.72 32.66L65 31.74L53.72 30.82C53.6464 30.814 53.576 30.7876 53.5164 30.744C53.4569 30.7004 53.4106 30.6411 53.3826 30.5728C53.3547 30.5045 53.3462 30.4298 53.358 30.3569C53.3699 30.284 53.4018 30.2159 53.45 30.16L56.83 26.16L52.83 29.55C52.7724 29.5977 52.7029 29.6288 52.6289 29.6398C52.5549 29.6508 52.4794 29.6414 52.4104 29.6126C52.3414 29.5837 52.2816 29.5366 52.2374 29.4762C52.1933 29.4158 52.1665 29.3445 52.16 29.27L51.24 17.99L50.34 29.24C50.3356 29.3144 50.3106 29.3861 50.2676 29.4471C50.2247 29.508 50.1655 29.5557 50.0969 29.5849C50.0283 29.614 49.9529 29.6233 49.8792 29.6119C49.8055 29.6004 49.7366 29.5686 49.68 29.52L45.68 26.13L49.07 30.13C49.1186 30.1865 49.1504 30.2556 49.1619 30.3292C49.1733 30.4029 49.164 30.4783 49.1348 30.5469C49.1057 30.6155 49.058 30.6747 48.9971 30.7176C48.9362 30.7606 48.8644 30.7856 48.79 30.79L37.51 31.71L48.79 32.63C48.8645 32.6365 48.9358 32.6633 48.9962 32.7074C49.0566 32.7515 49.1037 32.8114 49.1326 32.8804C49.1614 32.9494 49.1708 33.0249 49.1598 33.0989C49.1488 33.1729 49.1177 33.2424 49.07 33.3L45.68 37.3L49.68 33.92C49.7359 33.8718 49.804 33.8399 49.8769 33.828C49.9498 33.8162 50.0245 33.8246 50.0928 33.8526C50.1611 33.8806 50.2204 33.9269 50.264 33.9864C50.3077 34.046 50.3339 34.1164 50.34 34.19L51.26 45.47L52.18 34.24C52.1881 34.1664 52.2161 34.0963 52.2608 34.0372C52.3056 33.9782 52.3656 33.9324 52.4343 33.9047C52.503 33.877 52.578 33.8684 52.6512 33.8799C52.7244 33.8914 52.7931 33.9226 52.85 33.97L56.85 37.35L53.47 33.35C53.4133 33.2965 53.3735 33.2275 53.3555 33.1516C53.3375 33.0758 53.3421 32.9963 53.3686 32.923C53.3952 32.8497 53.4426 32.7857 53.505 32.739C53.5675 32.6923 53.6422 32.6648 53.72 32.66Z" fill="#FFFF00"/>
</svg>
