<svg width="100" height="125" viewBox="0 0 100 125" fill="none" xmlns="http://www.w3.org/2000/svg">
<path d="M86.914 53.023C84.943 57.239 80.704 59.937 76.042 59.937C76.042 59.937 68.385 59.35 61.228 59.061C61.259 59.35 61.267 59.64 61.267 59.937C61.267 65.983 56.363 70.887 50.317 70.887C44.271 70.887 39.367 65.983 39.367 59.937C39.367 59.64 39.383 59.343 39.406 59.053C32.203 59.342 24.444 59.937 24.444 59.937C19.79 59.937 15.551 57.239 13.58 53.023C13.58 53.023 0.259987 30.998 7.29899 39.602C11.992 45.343 28.198 53.524 39.609 57.63C40.673 52.687 45.06 48.987 50.316 48.987C55.556 48.987 59.936 52.663 61.016 57.583C72.427 53.461 88.516 45.319 93.193 39.602C100.234 30.998 86.914 53.023 86.914 53.023Z" fill="#FFE600"/>
</svg>
